<svg width="441" height="420" viewBox="0 0 441 420" fill="none" xmlns="http://www.w3.org/2000/svg">
<rect x="0.557434" width="439.885" height="420" rx="210" fill="#98A6FF"/>
<path d="M65.8634 185.801V255.304C65.8516 269.089 69.5253 282.626 76.5039 294.514C83.4825 306.402 93.5124 316.208 105.555 322.917L117.411 329.532V355.907C117.411 358.185 118.316 360.37 119.927 361.982C121.538 363.593 123.723 364.498 126.002 364.498H194.731C197.01 364.498 199.195 363.593 200.806 361.982C202.417 360.37 203.322 358.185 203.322 355.907V291.559C203.322 268.534 201.432 260.029 188.975 247.486L167.755 226.18C162.576 221.324 155.891 218.386 148.811 217.855C141.731 217.323 134.683 219.23 128.837 223.259L120.246 180.303C119.039 173.494 115.304 167.392 109.788 163.222C104.272 159.052 97.3831 157.121 90.5031 157.816C83.6231 158.512 77.2603 161.783 72.6907 166.973C68.121 172.163 65.6823 178.889 65.8634 185.801V185.801ZM103.407 184.083L116.38 248.689C116.38 249.72 116.38 250.665 116.38 251.696C116.337 252.526 116.337 253.357 116.38 254.187C116.38 255.304 117.067 256.421 117.411 257.538L118.098 259.6C118.671 260.847 119.332 262.053 120.074 263.208C120.299 263.684 120.557 264.143 120.847 264.582C121.901 266.186 123.11 267.682 124.455 269.05V269.05L144.988 289.583C146.606 291.2 148.8 292.109 151.088 292.109C153.376 292.109 155.57 291.2 157.188 289.583C158.805 287.965 159.714 285.771 159.714 283.483C159.714 281.195 158.805 279.001 157.188 277.383L136.655 256.85C134.242 254.434 132.886 251.159 132.886 247.744C132.886 244.329 134.242 241.053 136.655 238.637C139.103 236.285 142.366 234.971 145.761 234.971C149.157 234.971 152.42 236.285 154.868 238.637L176.088 259.943C183.906 267.761 185.453 271.026 185.453 291.816V347.316H134.593V324.463C134.59 322.941 134.183 321.446 133.413 320.133C132.643 318.82 131.538 317.735 130.211 316.989L113.974 308.397C104.522 303.146 96.6602 295.442 91.2173 286.099C85.7744 276.755 82.9515 266.117 83.0458 255.304V185.801C83.1705 183.309 84.1949 180.947 85.9289 179.152C87.663 177.358 89.9889 176.253 92.4754 176.044C94.9619 175.834 97.4401 176.533 99.4503 178.011C101.461 179.49 102.866 181.647 103.407 184.083V184.083ZM347.654 158.309C341.305 158.291 335.147 160.486 330.24 164.515C325.332 168.544 321.982 174.157 320.764 180.389L312.173 223.345C306.332 219.301 299.281 217.385 292.197 217.916C285.113 218.448 278.426 221.395 273.255 226.266L252.034 247.572C239.577 260.029 237.687 268.534 237.687 291.559V355.907C237.687 358.185 238.592 360.37 240.203 361.982C241.815 363.593 244 364.498 246.278 364.498H315.008C317.286 364.498 319.472 363.593 321.083 361.982C322.694 360.37 323.599 358.185 323.599 355.907V329.532L335.455 322.917C347.497 316.208 357.527 306.402 364.506 294.514C371.484 282.626 375.158 269.089 375.146 255.304V185.801C375.123 178.517 372.22 171.537 367.069 166.387C361.918 161.236 354.939 158.332 347.654 158.309V158.309ZM357.964 255.304C357.981 266.044 355.121 276.593 349.683 285.854C344.244 295.116 336.424 302.751 327.035 307.968L310.798 316.559C309.471 317.305 308.366 318.39 307.596 319.703C306.826 321.017 306.419 322.511 306.417 324.033V347.316H254.87V291.559C254.87 270.768 256.416 267.503 264.234 259.685L285.454 238.379C287.902 236.027 291.166 234.714 294.561 234.714C297.956 234.714 301.219 236.027 303.667 238.379C306.081 240.796 307.436 244.071 307.436 247.486C307.436 250.901 306.081 254.176 303.667 256.593L283.135 277.126C281.517 278.743 280.608 280.937 280.608 283.225C280.608 285.513 281.517 287.707 283.135 289.325C284.752 290.943 286.946 291.852 289.234 291.852C291.522 291.852 293.716 290.943 295.334 289.325L315.867 268.792C317.183 267.398 318.389 265.905 319.475 264.325C319.795 263.799 320.082 263.254 320.334 262.692C321.019 261.623 321.623 260.503 322.139 259.342C322.434 258.64 322.692 257.923 322.912 257.194C322.912 256.077 323.599 255.046 323.857 253.843C323.904 252.985 323.904 252.125 323.857 251.266C323.857 250.321 323.857 249.462 323.857 248.517L337.603 184.083C338.143 181.647 339.549 179.49 341.559 178.011C343.569 176.533 346.048 175.834 348.534 176.044C351.021 176.253 353.347 177.358 355.081 179.152C356.815 180.947 357.839 183.309 357.964 185.801V255.304ZM214.491 241.73C216.097 243.304 218.256 244.186 220.505 244.186C222.754 244.186 224.913 243.304 226.519 241.73L315.008 154.357C320.416 148.991 324.708 142.607 327.637 135.573C330.567 128.54 332.075 120.996 332.075 113.378C332.075 105.759 330.567 98.215 327.637 91.1816C324.708 84.1482 320.416 77.7642 315.008 72.3976C303.945 61.5672 289.08 55.502 273.598 55.502C258.117 55.502 243.251 61.5672 232.189 72.3976L220.505 83.652L208.821 72.3976C197.758 61.5672 182.893 55.502 167.411 55.502C151.93 55.502 137.064 61.5672 126.002 72.3976C120.555 77.7687 116.229 84.1688 113.277 91.2259C110.325 98.2831 108.805 105.857 108.805 113.506C108.805 121.156 110.325 128.73 113.277 135.787C116.229 142.844 120.555 149.244 126.002 154.615L214.491 241.73ZM138.115 84.4252C145.941 76.7281 156.478 72.4146 167.454 72.4146C178.431 72.4146 188.968 76.7281 196.793 84.4252L214.491 101.608C216.097 103.182 218.256 104.063 220.505 104.063C222.754 104.063 224.913 103.182 226.519 101.608L244.216 84.4252C252.053 76.7486 262.586 72.4491 273.555 72.4491C284.525 72.4491 295.058 76.7486 302.894 84.4252C306.726 88.1842 309.769 92.6694 311.847 97.6184C313.925 102.567 314.995 107.881 314.995 113.249C314.995 118.616 313.925 123.93 311.847 128.879C309.769 133.828 306.726 138.313 302.894 142.072L220.505 223.517L138.115 142.072C134.284 138.313 131.24 133.828 129.162 128.879C127.085 123.93 126.015 118.616 126.015 113.249C126.015 107.881 127.085 102.567 129.162 97.6184C131.24 92.6694 134.284 88.1842 138.115 84.4252V84.4252Z" fill="white"/>
<path d="M194.731 158.309H211.913V175.492C211.913 177.77 212.819 179.956 214.43 181.567C216.041 183.178 218.226 184.083 220.505 184.083C222.783 184.083 224.968 183.178 226.579 181.567C228.191 179.956 229.096 177.77 229.096 175.492V158.309H246.278C248.557 158.309 250.742 157.404 252.353 155.793C253.964 154.182 254.869 151.997 254.869 149.718C254.869 147.44 253.964 145.255 252.353 143.643C250.742 142.032 248.557 141.127 246.278 141.127H229.096V123.945C229.096 121.666 228.191 119.481 226.579 117.87C224.968 116.259 222.783 115.354 220.505 115.354C218.226 115.354 216.041 116.259 214.43 117.87C212.819 119.481 211.913 121.666 211.913 123.945V141.127H194.731C192.452 141.127 190.267 142.032 188.656 143.643C187.045 145.255 186.14 147.44 186.14 149.718C186.14 151.997 187.045 154.182 188.656 155.793C190.267 157.404 192.452 158.309 194.731 158.309Z" fill="white"/>
</svg>
